<svg width="30" height="28" viewBox="0 0 30 28" fill="none" xmlns="http://www.w3.org/2000/svg">
<g id="Group">
<path id="Vector" d="M16.7578 7.84766C17.2432 7.84766 17.6367 7.45416 17.6367 6.96875C17.6367 6.48334 17.2432 6.08984 16.7578 6.08984C16.2724 6.08984 15.8789 6.48334 15.8789 6.96875C15.8789 7.45416 16.2724 7.84766 16.7578 7.84766Z" fill="#00730C"/>
<path id="Vector_2" d="M20.2734 7.84766C20.7588 7.84766 21.1523 7.45416 21.1523 6.96875C21.1523 6.48334 20.7588 6.08984 20.2734 6.08984C19.788 6.08984 19.3945 6.48334 19.3945 6.96875C19.3945 7.45416 19.788 7.84766 20.2734 7.84766Z" fill="#00730C"/>
<path id="Vector_3" d="M23.7891 7.84766C24.2745 7.84766 24.668 7.45416 24.668 6.96875C24.668 6.48334 24.2745 6.08984 23.7891 6.08984C23.3037 6.08984 22.9102 6.48334 22.9102 6.96875C22.9102 7.45416 23.3037 7.84766 23.7891 7.84766Z" fill="#00730C"/>
<path id="Vector_4" d="M19.7586 27.1836C21.2055 27.1836 22.3828 26.0008 22.3828 24.5469V21.0312C22.3828 20.6531 22.141 20.3175 21.7825 20.1976L16.5215 18.4398C16.2639 18.3538 15.9813 18.3916 15.7554 18.5421L13.5182 20.0336C11.1171 18.8943 8.27924 16.0816 7.15049 13.7232L8.64147 11.4867C8.79199 11.2609 8.82979 10.9781 8.74377 10.7207L6.98596 5.45973C6.86613 5.10113 6.53045 4.85938 6.15234 4.85938H2.63672C1.18283 4.85938 0 6.03658 0 7.48361C0 12.3397 2.20805 17.3236 6.05801 21.1575C9.90375 24.9871 14.8975 27.1836 19.7586 27.1836ZM2.63672 6.61719H5.51936L6.94025 10.8697L5.42109 13.1484C5.26055 13.3892 5.22885 13.6936 5.33637 13.9623C5.92084 15.4235 7.09049 17.0669 8.6298 18.5898C10.159 20.1026 11.8104 21.2595 13.2799 21.8472C13.5485 21.9547 13.853 21.923 14.0938 21.7625L16.3726 20.2433L20.625 21.6642V24.5469C20.625 25.0397 20.2444 25.4258 19.7586 25.4258C10.5059 25.4258 1.75781 16.7062 1.75781 7.48361C1.75781 6.99775 2.14389 6.61719 2.63672 6.61719Z" fill="#00730C"/>
<path id="Vector_5" d="M16.4215 16.5698C16.7498 16.7059 17.1279 16.6306 17.3793 16.3793L20.6375 13.1211H23.7891C27.2138 13.1211 30 10.3612 30 6.96875C30 3.57635 27.2138 0.816406 23.7891 0.816406H16.7578C13.3654 0.816406 10.6055 3.57635 10.6055 6.96875C10.6055 10.0628 12.9013 12.6307 15.8789 13.0585V15.7578C15.8789 16.1133 16.0931 16.4337 16.4215 16.5698ZM12.3633 6.96875C12.3633 4.54561 14.3347 2.57422 16.7578 2.57422H23.7891C26.2445 2.57422 28.2422 4.54561 28.2422 6.96875C28.2422 9.39189 26.2445 11.3633 23.7891 11.3633H20.2734C20.0403 11.3633 19.8168 11.4559 19.652 11.6207L17.6367 13.636V12.2422C17.6367 11.7568 17.2432 11.3633 16.7578 11.3633C14.3347 11.3633 12.3633 9.39189 12.3633 6.96875Z" fill="#00730C"/>
</g>
</svg>
