<svg width="31" height="28" viewBox="0 0 31 28" fill="none" xmlns="http://www.w3.org/2000/svg">
<g id="Group">
<path id="Vector" d="M17.2578 7.84766C17.7432 7.84766 18.1367 7.45416 18.1367 6.96875C18.1367 6.48334 17.7432 6.08984 17.2578 6.08984C16.7724 6.08984 16.3789 6.48334 16.3789 6.96875C16.3789 7.45416 16.7724 7.84766 17.2578 7.84766Z" fill="#00730C"/>
<path id="Vector_2" d="M20.7734 7.84766C21.2588 7.84766 21.6523 7.45416 21.6523 6.96875C21.6523 6.48334 21.2588 6.08984 20.7734 6.08984C20.288 6.08984 19.8945 6.48334 19.8945 6.96875C19.8945 7.45416 20.288 7.84766 20.7734 7.84766Z" fill="#00730C"/>
<path id="Vector_3" d="M24.2891 7.84766C24.7745 7.84766 25.168 7.45416 25.168 6.96875C25.168 6.48334 24.7745 6.08984 24.2891 6.08984C23.8037 6.08984 23.4102 6.48334 23.4102 6.96875C23.4102 7.45416 23.8037 7.84766 24.2891 7.84766Z" fill="#00730C"/>
<path id="Vector_4" d="M20.2586 27.1836C21.7055 27.1836 22.8828 26.0008 22.8828 24.5469V21.0312C22.8828 20.6531 22.641 20.3175 22.2825 20.1976L17.0215 18.4398C16.7639 18.3538 16.4813 18.3916 16.2554 18.5421L14.0182 20.0336C11.6171 18.8943 8.77924 16.0816 7.65049 13.7232L9.14147 11.4867C9.29199 11.2609 9.32979 10.9781 9.24377 10.7207L7.48596 5.45973C7.36613 5.10113 7.03045 4.85938 6.65234 4.85938H3.13672C1.68283 4.85938 0.5 6.03658 0.5 7.48361C0.5 12.3397 2.70805 17.3236 6.55801 21.1575C10.4038 24.9871 15.3975 27.1836 20.2586 27.1836ZM3.13672 6.61719H6.01936L7.44025 10.8697L5.92109 13.1484C5.76055 13.3892 5.72885 13.6936 5.83637 13.9623C6.42084 15.4235 7.59049 17.0669 9.1298 18.5898C10.659 20.1026 12.3104 21.2595 13.7799 21.8472C14.0485 21.9547 14.353 21.923 14.5938 21.7625L16.8726 20.2433L21.125 21.6642V24.5469C21.125 25.0397 20.7444 25.4258 20.2586 25.4258C11.0059 25.4258 2.25781 16.7062 2.25781 7.48361C2.25781 6.99775 2.64389 6.61719 3.13672 6.61719Z" fill="#00730C"/>
<path id="Vector_5" d="M16.9215 16.5698C17.2498 16.7059 17.6279 16.6306 17.8793 16.3793L21.1375 13.1211H24.2891C27.7138 13.1211 30.5 10.3612 30.5 6.96875C30.5 3.57635 27.7138 0.816406 24.2891 0.816406H17.2578C13.8654 0.816406 11.1055 3.57635 11.1055 6.96875C11.1055 10.0628 13.4013 12.6307 16.3789 13.0585V15.7578C16.3789 16.1133 16.5931 16.4337 16.9215 16.5698ZM12.8633 6.96875C12.8633 4.54561 14.8347 2.57422 17.2578 2.57422H24.2891C26.7445 2.57422 28.7422 4.54561 28.7422 6.96875C28.7422 9.39189 26.7445 11.3633 24.2891 11.3633H20.7734C20.5403 11.3633 20.3168 11.4559 20.152 11.6207L18.1367 13.636V12.2422C18.1367 11.7568 17.7432 11.3633 17.2578 11.3633C14.8347 11.3633 12.8633 9.39189 12.8633 6.96875Z" fill="#00730C"/>
</g>
</svg>
